<svg xmlns="http://www.w3.org/2000/svg" viewBox="0 0 17.16 13"><defs><style>.cls-1{fill:#999;}</style></defs><title>mail</title><g id="Layer_2" data-name="Layer 2"><g id="Layer_1-2" data-name="Layer 1"><path class="cls-1" d="M16.66,13H.5a.5.5,0,0,1-.5-.5V.5A.5.5,0,0,1,.5,0H16.66a.5.5,0,0,1,.5.5v12A.5.5,0,0,1,16.66,13ZM1,12H16.16V1H1ZM14.87,2.79a.5.5,0,0,0-.7-.12L8.66,6.62l-5.53-4a.5.5,0,0,0-.58.81L8.37,7.64h0a.49.49,0,0,0,.26.08h0a.49.49,0,0,0,.26-.08H9l5.8-4.16A.5.5,0,0,0,14.87,2.79Z"/></g></g></svg>