<svg xmlns="http://www.w3.org/2000/svg" viewBox="0 0 17 15.67"><defs><style>.cls-1{fill:#999;}</style></defs><title>patient_avatar</title><g id="Layer_2" data-name="Layer 2"><g id="Layer_1-2" data-name="Layer 1"><path class="cls-1" d="M12.41,7.64a4.83,4.83,0,1,0-7.81,0A8.5,8.5,0,0,0,0,15.17a.5.5,0,0,0,1,0A7.51,7.51,0,0,1,5.29,8.4a4.75,4.75,0,0,0,6.43,0A7.48,7.48,0,0,1,16,15.17a.5.5,0,0,0,1,0A8.47,8.47,0,0,0,12.41,7.64ZM4.67,4.83A3.83,3.83,0,1,1,8.5,8.66,3.83,3.83,0,0,1,4.67,4.83Z"/></g></g></svg>