<svg xmlns="http://www.w3.org/2000/svg" viewBox="0 0 14.88 14.95"><defs><style>.cls-1{fill:#999;}</style></defs><title>phone</title><g id="Layer_2" data-name="Layer 2"><g id="Layer_1-2" data-name="Layer 1"><path class="cls-1" d="M10,15c-2.11,0-4.31-2-6.39-4.24C2,8.91,0,6.46,0,5.06a5.83,5.83,0,0,1,3-5c.72-.4,1.47.56,2.41,1.77.2.26.4.51.58.73a1.66,1.66,0,0,1,.45,1.27,2.09,2.09,0,0,1-1,1.34,1.72,1.72,0,0,0-.64,1.13A.68.68,0,0,0,5,6.79,22.59,22.59,0,0,0,7.49,9.38c1.1,1,1.5.64,2.12.08A5.27,5.27,0,0,1,10,9.09c1-.69,1.55-.43,1.66-.36a27.21,27.21,0,0,1,3.06,2.7.5.5,0,0,1,.11.38c-.16,1.37-2.88,2.8-3.94,3A3.17,3.17,0,0,1,10,15ZM3.38,1A4.88,4.88,0,0,0,1,5.11c0,.57.85,2.22,3.37,4.91,2.06,2.21,4.42,4.39,6.32,3.82a6.26,6.26,0,0,0,3.13-2,30.5,30.5,0,0,0-2.58-2.25,1.2,1.2,0,0,0-.61.28,4.23,4.23,0,0,0-.35.3c-.63.57-1.69,1.53-3.46-.08A22.54,22.54,0,0,1,4.29,7.49a1.68,1.68,0,0,1-.47-1.13,2.62,2.62,0,0,1,1-1.9l.1-.08c.22-.16.56-.41.59-.65a.78.78,0,0,0-.23-.51c-.19-.23-.39-.49-.6-.76A9.27,9.27,0,0,0,3.38,1ZM3.25.54h0Z"/></g></g></svg>