<svg xmlns="http://www.w3.org/2000/svg" viewBox="0 0 24 24"><defs><style>.cls-1{fill:#999;}</style></defs><title>printer</title><g id="Layer_2" data-name="Layer 2"><g id="Layer_1-2" data-name="Layer 1"><path class="cls-1" d="M22.15,4.87h0V.54A.53.53,0,0,0,21.61,0H2.39a.53.53,0,0,0-.53.54V4.87h0A1.87,1.87,0,0,0,0,6.77v9.11a1.87,1.87,0,0,0,1.85,1.89H4.4v5.68a.53.53,0,0,0,.53.54H19.34a.53.53,0,0,0,.53-.54V17.77h2.29A1.87,1.87,0,0,0,24,15.88V6.77A1.87,1.87,0,0,0,22.15,4.87ZM2.92,1.08H21.08V4.87H2.92Zm15.9,21.83H5.45V15H18.81Zm4.13-7a.8.8,0,0,1-.79.81H19.87V15h.62a.54.54,0,0,0,0-1.08h-17a.54.54,0,0,0,0,1.08H4.4v1.71H1.85a.8.8,0,0,1-.79-.81V6.77A.8.8,0,0,1,1.85,6H22.15a.8.8,0,0,1,.79.81ZM7.78,18.32h8.44a.54.54,0,0,0,0-1.08H7.78a.54.54,0,0,0,0,1.08Zm0,2.89h8.44a.54.54,0,0,0,0-1.08H7.78a.54.54,0,0,0,0,1.08ZM20.48,8H15.65a.53.53,0,0,0-.53.54v2.53a.53.53,0,0,0,.53.54h4.84a.53.53,0,0,0,.53-.54V8.53A.53.53,0,0,0,20.48,8ZM20,10.51H16.18V9.07H20Z"/></g></g></svg>