<svg xmlns="http://www.w3.org/2000/svg" viewBox="0 0 18.51 16.42"><defs><style>.cls-1{fill:#ed3a3a;}.cls-2{fill:#fff;}</style></defs><title>warning</title><g id="Layer_2" data-name="Layer 2"><g id="Layer_1-2" data-name="Layer 1"><path class="cls-1" d="M9.25,16.42H1.47A1.47,1.47,0,0,1,.2,14.22L4.09,7.48,8,.73a1.47,1.47,0,0,1,2.54,0l3.89,6.74,3.89,6.74A1.47,1.47,0,0,1,17,16.42Z"/><path class="cls-2" d="M8.39,12.37a.83.83,0,0,1,.22-.63.9.9,0,0,1,.65-.21.88.88,0,0,1,.64.22,1,1,0,0,1,0,1.24.86.86,0,0,1-.63.23A.88.88,0,0,1,8.62,13,.82.82,0,0,1,8.39,12.37Zm1.48-1.69H8.66L8.41,5.85h1.71Z"/></g></g></svg>